{
  "asset": {
    "version": "2.0",
    "generator": "THREE.GLTFExporter r179"
  },
  "scenes": [
    {
      "name": "Scene",
      "nodes": [
        0,
        1,
        2
      ]
    }
  ],
  "scene": 0,
  "nodes": [
    {
      "matrix": [
        1,
        0,
        0,
        0,
        0,
        1,
        0,
        0,
        0,
        0,
        1,
        0,
        0,
        13.98120970108414,
        0,
        1
      ],
      "name": "hex_boom.stl",
      "mesh": 0
    },
    {
      "name": "hcell_top_boom_chamfer.stl",
      "mesh": 1
    },
    {
      "matrix": [
        1,
        0,
        0,
        0,
        0,
        1,
        0,
        0,
        0,
        0,
        1,
        0,
        -24.778754982043743,
        -107.35038913174489,
        42.65964295490509,
        1
      ],
      "name": "membrane_tray_v8.stl",
      "mesh": 2
    }
  ],
  "bufferViews": [
    {
      "buffer": 0,
      "byteOffset": 0,
      "byteLength": 275112,
      "target": 34962,
      "byteStride": 12
    },
    {
      "buffer": 0,
      "byteOffset": 275112,
      "byteLength": 275112,
      "target": 34962,
      "byteStride": 12
    },
    {
      "buffer": 0,
      "byteOffset": 550224,
      "byteLength": 437832,
      "target": 34962,
      "byteStride": 12
    },
    {
      "buffer": 0,
      "byteOffset": 988056,
      "byteLength": 437832,
      "target": 34962,
      "byteStride": 12
    },
    {
      "buffer": 0,
      "byteOffset": 1425888,
      "byteLength": 241560,
      "target": 34962,
      "byteStride": 12
    },
    {
      "buffer": 0,
      "byteOffset": 1667448,
      "byteLength": 241560,
      "target": 34962,
      "byteStride": 12
    }
  ],
  "buffers": [
    {
      "byteLength": 1909008,
      "uri": "data:application/octet-stream;base64,"
    }
  ],
  "accessors": [
    {
      "bufferView": 0,
      "componentType": 5126,
      "count": 22926,
      "max": [
        26.79991912841797,
        29.923969268798828,
        28.83646011352539
      ],
      "min": [
        -27.156030654907227,
        6.92397403717041,
        -29.052549362182617
      ],
      "type": "VEC3"
    },
    {
      "bufferView": 1,
      "componentType": 5126,
      "count": 22926,
      "max": [
        0.9999868273735046,
        1,
        0.9999917149543762
      ],
      "min": [
        -0.9999957084655762,
        -1,
        -1
      ],
      "type": "VEC3"
    },
    {
      "bufferView": 2,
      "componentType": 5126,
      "count": 36486,
      "max": [
        20.87820053100586,
        5.92397403717041,
        20.88071060180664
      ],
      "min": [
        -20.882139205932617,
        -69.59928131103516,
        -20.882219314575195
      ],
      "type": "VEC3"
    },
    {
      "bufferView": 3,
      "componentType": 5126,
      "count": 36486,
      "max": [
        1,
        1,
        0.9999989867210388
      ],
      "min": [
        -0.9999960064888,
        -1,
        -0.9999632239341736
      ],
      "type": "VEC3"
    },
    {
      "bufferView": 4,
      "componentType": 5126,
      "count": 20130,
      "max": [
        43.385379791259766,
        26.573320388793945,
        -28.981340408325195
      ],
      "min": [
        13.392729759216309,
        12.573320388793945,
        -58.98020935058594
      ],
      "type": "VEC3"
    },
    {
      "bufferView": 5,
      "componentType": 5126,
      "count": 20130,
      "max": [
        0.9999982714653015,
        1,
        0.999988317489624
      ],
      "min": [
        -0.9999979138374329,
        -1,
        -0.9999980926513672
      ],
      "type": "VEC3"
    }
  ],
  "materials": [
    {
      "pbrMetallicRoughness": {
        "metallicFactor": 0,
        "roughnessFactor": 0.9
      },
      "extensions": {
        "KHR_materials_unlit": {}
      }
    },
    {
      "pbrMetallicRoughness": {
        "metallicFactor": 0,
        "roughnessFactor": 1
      }
    },
    {
      "pbrMetallicRoughness": {
        "metallicFactor": 0,
        "roughnessFactor": 1
      }
    }
  ],
  "meshes": [
    {
      "primitives": [
        {
          "mode": 1,
          "attributes": {
            "POSITION": 0,
            "NORMAL": 1
          },
          "extras": {
            "groupNames": [
              "ASCII"
            ]
          },
          "material": 0
        }
      ]
    },
    {
      "primitives": [
        {
          "mode": 1,
          "attributes": {
            "POSITION": 2,
            "NORMAL": 3
          },
          "extras": {
            "groupNames": [
              "ASCII"
            ]
          },
          "material": 1
        }
      ]
    },
    {
      "primitives": [
        {
          "mode": 1,
          "attributes": {
            "POSITION": 4,
            "NORMAL": 5
          },
          "extras": {
            "groupNames": [
              "ASCII"
            ]
          },
          "material": 2
        }
      ]
    }
  ],
  "extensionsUsed": [
    "KHR_materials_unlit"
  ]
}